<mxfile host="app.diagrams.net" agent="Mozilla/5.0 (Windows NT 10.0; Win64; x64) AppleWebKit/537.36 (KHTML, like Gecko) Chrome/140.0.0.0 Safari/537.36" version="28.2.5">
  <diagram id="4lKdeR4ZtB2dtN9yT8d8" name="Page-1">
    <mxGraphModel dx="2428" dy="1872" grid="1" gridSize="10" guides="1" tooltips="1" connect="1" arrows="1" fold="1" page="1" pageScale="1" pageWidth="827" pageHeight="1169" math="0" shadow="0">
      <root>
        <mxCell id="0" />
        <mxCell id="1" parent="0" />
        <mxCell id="KLNV0JxwbwmlQM-yH4I7-1" value="Customer" style="whiteSpace=wrap;html=1;align=center;" parent="1" vertex="1">
          <mxGeometry x="-370" y="200" width="100" height="40" as="geometry" />
        </mxCell>
        <mxCell id="KLNV0JxwbwmlQM-yH4I7-2" value="email" style="ellipse;whiteSpace=wrap;html=1;align=center;" parent="1" vertex="1">
          <mxGeometry x="-570" y="240" width="100" height="40" as="geometry" />
        </mxCell>
        <mxCell id="KLNV0JxwbwmlQM-yH4I7-3" value="lastName" style="ellipse;whiteSpace=wrap;html=1;align=center;" parent="1" vertex="1">
          <mxGeometry x="-510" y="380" width="100" height="40" as="geometry" />
        </mxCell>
        <mxCell id="KLNV0JxwbwmlQM-yH4I7-4" value="firstName" style="ellipse;whiteSpace=wrap;html=1;align=center;" parent="1" vertex="1">
          <mxGeometry x="-520" y="90" width="100" height="40" as="geometry" />
        </mxCell>
        <mxCell id="KLNV0JxwbwmlQM-yH4I7-6" value="phoneNumber" style="ellipse;whiteSpace=wrap;html=1;align=center;" parent="1" vertex="1">
          <mxGeometry x="-430" y="20" width="100" height="40" as="geometry" />
        </mxCell>
        <mxCell id="KLNV0JxwbwmlQM-yH4I7-7" value="DateOfBirth" style="ellipse;whiteSpace=wrap;html=1;align=center;" parent="1" vertex="1">
          <mxGeometry x="-570" y="310" width="100" height="40" as="geometry" />
        </mxCell>
        <mxCell id="KLNV0JxwbwmlQM-yH4I7-8" value="BankAccount" style="rounded=1;arcSize=10;whiteSpace=wrap;html=1;align=center;" parent="1" vertex="1">
          <mxGeometry x="-430" y="590" width="100" height="40" as="geometry" />
        </mxCell>
        <mxCell id="KLNV0JxwbwmlQM-yH4I7-17" value="status" style="ellipse;whiteSpace=wrap;html=1;align=center;" parent="1" vertex="1">
          <mxGeometry x="-450" y="820" width="100" height="40" as="geometry" />
        </mxCell>
        <mxCell id="KLNV0JxwbwmlQM-yH4I7-18" value="accountType" style="ellipse;whiteSpace=wrap;html=1;align=center;" parent="1" vertex="1">
          <mxGeometry x="-560" y="770" width="100" height="40" as="geometry" />
        </mxCell>
        <mxCell id="KLNV0JxwbwmlQM-yH4I7-19" value="balance" style="ellipse;whiteSpace=wrap;html=1;align=center;" parent="1" vertex="1">
          <mxGeometry x="-610" y="690" width="100" height="40" as="geometry" />
        </mxCell>
        <mxCell id="KLNV0JxwbwmlQM-yH4I7-20" value="accountId&lt;span style=&quot;color: rgba(0, 0, 0, 0); font-family: monospace; font-size: 0px; text-align: start; text-wrap-mode: nowrap;&quot;&gt;%3CmxGraphModel%3E%3Croot%3E%3CmxCell%20id%3D%220%22%2F%3E%3CmxCell%20id%3D%221%22%20parent%3D%220%22%2F%3E%3CmxCell%20id%3D%222%22%20value%3D%22userId%22%20style%3D%22ellipse%3BwhiteSpace%3Dwrap%3Bhtml%3D1%3Balign%3Dcenter%3B%22%20vertex%3D%221%22%20parent%3D%221%22%3E%3CmxGeometry%20x%3D%22630%22%20y%3D%22160%22%20width%3D%22100%22%20height%3D%2240%22%20as%3D%22geometry%22%2F%3E%3C%2FmxCell%3E%3C%2Froot%3E%3C%2FmxGraphModel%3E&lt;/span&gt;" style="ellipse;whiteSpace=wrap;html=1;align=center;fontStyle=4;" parent="1" vertex="1">
          <mxGeometry x="-580" y="490" width="100" height="40" as="geometry" />
        </mxCell>
        <mxCell id="KLNV0JxwbwmlQM-yH4I7-21" value="accountNumber" style="ellipse;whiteSpace=wrap;html=1;align=center;fontStyle=4;" parent="1" vertex="1">
          <mxGeometry x="-600" y="600" width="100" height="40" as="geometry" />
        </mxCell>
        <mxCell id="KLNV0JxwbwmlQM-yH4I7-22" value="" style="endArrow=none;html=1;rounded=0;entryX=0.313;entryY=0.913;entryDx=0;entryDy=0;entryPerimeter=0;exitX=0.627;exitY=0.013;exitDx=0;exitDy=0;exitPerimeter=0;" parent="1" source="KLNV0JxwbwmlQM-yH4I7-1" target="KLNV0JxwbwmlQM-yH4I7-6" edge="1">
          <mxGeometry relative="1" as="geometry">
            <mxPoint x="290" y="270" as="sourcePoint" />
            <mxPoint x="120" y="130" as="targetPoint" />
          </mxGeometry>
        </mxCell>
        <mxCell id="KLNV0JxwbwmlQM-yH4I7-23" value="" style="endArrow=none;html=1;rounded=0;entryX=0;entryY=0.5;entryDx=0;entryDy=0;exitX=0;exitY=0.25;exitDx=0;exitDy=0;" parent="1" source="KLNV0JxwbwmlQM-yH4I7-1" target="KLNV0JxwbwmlQM-yH4I7-35" edge="1">
          <mxGeometry relative="1" as="geometry">
            <mxPoint x="80" y="314" as="sourcePoint" />
            <mxPoint x="170" y="200" as="targetPoint" />
          </mxGeometry>
        </mxCell>
        <mxCell id="KLNV0JxwbwmlQM-yH4I7-24" value="" style="endArrow=none;html=1;rounded=0;entryX=0.735;entryY=0.842;entryDx=0;entryDy=0;exitX=0.25;exitY=0;exitDx=0;exitDy=0;entryPerimeter=0;" parent="1" source="KLNV0JxwbwmlQM-yH4I7-1" target="KLNV0JxwbwmlQM-yH4I7-4" edge="1">
          <mxGeometry relative="1" as="geometry">
            <mxPoint x="130" y="444" as="sourcePoint" />
            <mxPoint x="188" y="320" as="targetPoint" />
          </mxGeometry>
        </mxCell>
        <mxCell id="KLNV0JxwbwmlQM-yH4I7-25" value="" style="endArrow=none;html=1;rounded=0;entryX=0.75;entryY=1;entryDx=0;entryDy=0;exitX=0.626;exitY=0.053;exitDx=0;exitDy=0;exitPerimeter=0;" parent="1" source="KLNV0JxwbwmlQM-yH4I7-3" target="KLNV0JxwbwmlQM-yH4I7-1" edge="1">
          <mxGeometry relative="1" as="geometry">
            <mxPoint x="90" y="454" as="sourcePoint" />
            <mxPoint x="148" y="330" as="targetPoint" />
          </mxGeometry>
        </mxCell>
        <mxCell id="KLNV0JxwbwmlQM-yH4I7-26" value="" style="endArrow=none;html=1;rounded=0;entryX=0;entryY=0.75;entryDx=0;entryDy=0;exitX=0.983;exitY=0.292;exitDx=0;exitDy=0;exitPerimeter=0;" parent="1" source="KLNV0JxwbwmlQM-yH4I7-2" target="KLNV0JxwbwmlQM-yH4I7-1" edge="1">
          <mxGeometry relative="1" as="geometry">
            <mxPoint x="-30" y="404" as="sourcePoint" />
            <mxPoint x="28" y="280" as="targetPoint" />
          </mxGeometry>
        </mxCell>
        <mxCell id="KLNV0JxwbwmlQM-yH4I7-27" value="" style="endArrow=none;html=1;rounded=0;entryX=0.58;entryY=0.996;entryDx=0;entryDy=0;entryPerimeter=0;exitX=1;exitY=0;exitDx=0;exitDy=0;" parent="1" source="KLNV0JxwbwmlQM-yH4I7-7" target="KLNV0JxwbwmlQM-yH4I7-1" edge="1">
          <mxGeometry relative="1" as="geometry">
            <mxPoint x="90" y="544" as="sourcePoint" />
            <mxPoint x="148" y="420" as="targetPoint" />
          </mxGeometry>
        </mxCell>
        <mxCell id="KLNV0JxwbwmlQM-yH4I7-35" value="customerId" style="ellipse;whiteSpace=wrap;html=1;align=center;fontStyle=4;" parent="1" vertex="1">
          <mxGeometry x="-530" y="160" width="100" height="40" as="geometry" />
        </mxCell>
        <mxCell id="KLNV0JxwbwmlQM-yH4I7-37" value="" style="endArrow=none;html=1;rounded=0;exitX=0.679;exitY=0.868;exitDx=0;exitDy=0;exitPerimeter=0;entryX=0.096;entryY=-0.055;entryDx=0;entryDy=0;entryPerimeter=0;" parent="1" source="KLNV0JxwbwmlQM-yH4I7-20" target="KLNV0JxwbwmlQM-yH4I7-8" edge="1">
          <mxGeometry relative="1" as="geometry">
            <mxPoint x="290" y="550" as="sourcePoint" />
            <mxPoint x="450" y="550" as="targetPoint" />
          </mxGeometry>
        </mxCell>
        <mxCell id="KLNV0JxwbwmlQM-yH4I7-38" value="" style="endArrow=none;html=1;rounded=0;entryX=1;entryY=0.5;entryDx=0;entryDy=0;exitX=0;exitY=0.5;exitDx=0;exitDy=0;" parent="1" source="KLNV0JxwbwmlQM-yH4I7-8" target="KLNV0JxwbwmlQM-yH4I7-21" edge="1">
          <mxGeometry relative="1" as="geometry">
            <mxPoint x="-310" y="620" as="sourcePoint" />
            <mxPoint x="450" y="550" as="targetPoint" />
          </mxGeometry>
        </mxCell>
        <mxCell id="KLNV0JxwbwmlQM-yH4I7-40" value="" style="endArrow=none;html=1;rounded=0;entryX=1;entryY=0;entryDx=0;entryDy=0;exitX=0;exitY=0.75;exitDx=0;exitDy=0;" parent="1" source="KLNV0JxwbwmlQM-yH4I7-8" target="KLNV0JxwbwmlQM-yH4I7-19" edge="1">
          <mxGeometry relative="1" as="geometry">
            <mxPoint x="-310" y="650" as="sourcePoint" />
            <mxPoint x="603" y="660" as="targetPoint" />
          </mxGeometry>
        </mxCell>
        <mxCell id="KLNV0JxwbwmlQM-yH4I7-41" value="" style="endArrow=none;html=1;rounded=0;entryX=0.633;entryY=0.137;entryDx=0;entryDy=0;entryPerimeter=0;exitX=0.25;exitY=1;exitDx=0;exitDy=0;" parent="1" source="KLNV0JxwbwmlQM-yH4I7-8" target="KLNV0JxwbwmlQM-yH4I7-18" edge="1">
          <mxGeometry relative="1" as="geometry">
            <mxPoint x="570" y="719" as="sourcePoint" />
            <mxPoint x="623" y="680" as="targetPoint" />
          </mxGeometry>
        </mxCell>
        <mxCell id="KLNV0JxwbwmlQM-yH4I7-42" value="" style="endArrow=none;html=1;rounded=0;entryX=0.5;entryY=0;entryDx=0;entryDy=0;exitX=0.424;exitY=1.018;exitDx=0;exitDy=0;exitPerimeter=0;" parent="1" source="KLNV0JxwbwmlQM-yH4I7-8" target="KLNV0JxwbwmlQM-yH4I7-17" edge="1">
          <mxGeometry relative="1" as="geometry">
            <mxPoint x="560" y="729" as="sourcePoint" />
            <mxPoint x="613" y="690" as="targetPoint" />
          </mxGeometry>
        </mxCell>
        <mxCell id="KLNV0JxwbwmlQM-yH4I7-43" value="Transaction" style="whiteSpace=wrap;html=1;align=center;" parent="1" vertex="1">
          <mxGeometry x="-210" y="620" width="100" height="40" as="geometry" />
        </mxCell>
        <mxCell id="KLNV0JxwbwmlQM-yH4I7-44" value="fromAccountId" style="ellipse;whiteSpace=wrap;html=1;align=center;" parent="1" vertex="1">
          <mxGeometry x="-30" y="610" width="100" height="40" as="geometry" />
        </mxCell>
        <mxCell id="KLNV0JxwbwmlQM-yH4I7-45" value="TransactionId" style="ellipse;whiteSpace=wrap;html=1;align=center;fontStyle=4;" parent="1" vertex="1">
          <mxGeometry x="-80" y="480" width="100" height="40" as="geometry" />
        </mxCell>
        <mxCell id="KLNV0JxwbwmlQM-yH4I7-47" value="transactionType" style="ellipse;whiteSpace=wrap;html=1;align=center;" parent="1" vertex="1">
          <mxGeometry x="-20" y="790" width="100" height="40" as="geometry" />
        </mxCell>
        <mxCell id="KLNV0JxwbwmlQM-yH4I7-48" value="toAccountId" style="ellipse;whiteSpace=wrap;html=1;align=center;" parent="1" vertex="1">
          <mxGeometry x="-50" y="680" width="100" height="40" as="geometry" />
        </mxCell>
        <mxCell id="KLNV0JxwbwmlQM-yH4I7-49" value="amount" style="ellipse;whiteSpace=wrap;html=1;align=center;" parent="1" vertex="1">
          <mxGeometry x="-10" y="870" width="100" height="40" as="geometry" />
        </mxCell>
        <mxCell id="KLNV0JxwbwmlQM-yH4I7-50" value="description" style="ellipse;whiteSpace=wrap;html=1;align=center;" parent="1" vertex="1">
          <mxGeometry x="-40" y="920" width="100" height="40" as="geometry" />
        </mxCell>
        <mxCell id="KLNV0JxwbwmlQM-yH4I7-51" value="status" style="ellipse;whiteSpace=wrap;html=1;align=center;" parent="1" vertex="1">
          <mxGeometry x="-40" y="540" width="100" height="40" as="geometry" />
        </mxCell>
        <mxCell id="KLNV0JxwbwmlQM-yH4I7-52" value="timestamp" style="ellipse;whiteSpace=wrap;html=1;align=center;" parent="1" vertex="1">
          <mxGeometry x="-160" y="940" width="100" height="40" as="geometry" />
        </mxCell>
        <mxCell id="KLNV0JxwbwmlQM-yH4I7-54" value="Admin" style="whiteSpace=wrap;html=1;align=center;" parent="1" vertex="1">
          <mxGeometry x="200" y="310" width="100" height="40" as="geometry" />
        </mxCell>
        <mxCell id="KLNV0JxwbwmlQM-yH4I7-55" value="passwordHash" style="ellipse;whiteSpace=wrap;html=1;align=center;" parent="1" vertex="1">
          <mxGeometry x="310" y="240" width="100" height="40" as="geometry" />
        </mxCell>
        <mxCell id="KLNV0JxwbwmlQM-yH4I7-56" value="adminId" style="ellipse;whiteSpace=wrap;html=1;align=center;fontStyle=4;" parent="1" vertex="1">
          <mxGeometry x="210" y="170" width="100" height="40" as="geometry" />
        </mxCell>
        <mxCell id="KLNV0JxwbwmlQM-yH4I7-57" value="username" style="ellipse;whiteSpace=wrap;html=1;align=center;" parent="1" vertex="1">
          <mxGeometry x="350" y="320" width="100" height="40" as="geometry" />
        </mxCell>
        <mxCell id="hvfkJ8Ui0_NtQzetKTxe-1" value="Log" style="whiteSpace=wrap;html=1;align=center;" vertex="1" parent="1">
          <mxGeometry x="100" y="670" width="100" height="40" as="geometry" />
        </mxCell>
        <mxCell id="hvfkJ8Ui0_NtQzetKTxe-2" value="LogId" style="ellipse;whiteSpace=wrap;html=1;align=center;fontStyle=4;" vertex="1" parent="1">
          <mxGeometry x="200" y="540" width="100" height="40" as="geometry" />
        </mxCell>
        <mxCell id="hvfkJ8Ui0_NtQzetKTxe-3" value="Actor" style="ellipse;whiteSpace=wrap;html=1;align=center;" vertex="1" parent="1">
          <mxGeometry x="250" y="610" width="100" height="40" as="geometry" />
        </mxCell>
        <mxCell id="hvfkJ8Ui0_NtQzetKTxe-4" value="action" style="ellipse;whiteSpace=wrap;html=1;align=center;" vertex="1" parent="1">
          <mxGeometry x="250" y="700" width="100" height="40" as="geometry" />
        </mxCell>
        <mxCell id="hvfkJ8Ui0_NtQzetKTxe-5" value="details" style="ellipse;whiteSpace=wrap;html=1;align=center;" vertex="1" parent="1">
          <mxGeometry x="190" y="850" width="100" height="40" as="geometry" />
        </mxCell>
        <mxCell id="hvfkJ8Ui0_NtQzetKTxe-6" value="timestamp" style="ellipse;whiteSpace=wrap;html=1;align=center;" vertex="1" parent="1">
          <mxGeometry x="250" y="780" width="100" height="40" as="geometry" />
        </mxCell>
        <mxCell id="hvfkJ8Ui0_NtQzetKTxe-8" value="role" style="ellipse;whiteSpace=wrap;html=1;align=center;" vertex="1" parent="1">
          <mxGeometry x="340" y="390" width="100" height="40" as="geometry" />
        </mxCell>
        <mxCell id="hvfkJ8Ui0_NtQzetKTxe-9" value="" style="endArrow=none;html=1;rounded=0;exitX=0.75;exitY=0;exitDx=0;exitDy=0;entryX=0;entryY=1;entryDx=0;entryDy=0;" edge="1" parent="1" source="KLNV0JxwbwmlQM-yH4I7-43" target="KLNV0JxwbwmlQM-yH4I7-45">
          <mxGeometry relative="1" as="geometry">
            <mxPoint x="90" y="760" as="sourcePoint" />
            <mxPoint x="250" y="760" as="targetPoint" />
          </mxGeometry>
        </mxCell>
        <mxCell id="hvfkJ8Ui0_NtQzetKTxe-10" value="" style="endArrow=none;html=1;rounded=0;exitX=1;exitY=0.25;exitDx=0;exitDy=0;entryX=0;entryY=0.5;entryDx=0;entryDy=0;" edge="1" parent="1" source="KLNV0JxwbwmlQM-yH4I7-43" target="KLNV0JxwbwmlQM-yH4I7-51">
          <mxGeometry relative="1" as="geometry">
            <mxPoint x="-140" y="936" as="sourcePoint" />
            <mxPoint x="-30" y="800" as="targetPoint" />
          </mxGeometry>
        </mxCell>
        <mxCell id="hvfkJ8Ui0_NtQzetKTxe-11" value="" style="endArrow=none;html=1;rounded=0;exitX=1;exitY=0.5;exitDx=0;exitDy=0;entryX=0.04;entryY=0.673;entryDx=0;entryDy=0;entryPerimeter=0;" edge="1" parent="1" source="KLNV0JxwbwmlQM-yH4I7-43" target="KLNV0JxwbwmlQM-yH4I7-44">
          <mxGeometry relative="1" as="geometry">
            <mxPoint x="-150" y="810" as="sourcePoint" />
            <mxPoint x="10" y="810" as="targetPoint" />
          </mxGeometry>
        </mxCell>
        <mxCell id="hvfkJ8Ui0_NtQzetKTxe-12" value="" style="endArrow=none;html=1;rounded=0;exitX=1;exitY=0.75;exitDx=0;exitDy=0;entryX=0;entryY=0.5;entryDx=0;entryDy=0;" edge="1" parent="1" source="KLNV0JxwbwmlQM-yH4I7-43" target="KLNV0JxwbwmlQM-yH4I7-48">
          <mxGeometry relative="1" as="geometry">
            <mxPoint x="-160" y="1006" as="sourcePoint" />
            <mxPoint x="-50" y="870" as="targetPoint" />
          </mxGeometry>
        </mxCell>
        <mxCell id="hvfkJ8Ui0_NtQzetKTxe-13" value="" style="endArrow=none;html=1;rounded=0;exitX=1;exitY=1;exitDx=0;exitDy=0;entryX=0.056;entryY=0.297;entryDx=0;entryDy=0;entryPerimeter=0;" edge="1" parent="1" source="KLNV0JxwbwmlQM-yH4I7-43" target="KLNV0JxwbwmlQM-yH4I7-47">
          <mxGeometry relative="1" as="geometry">
            <mxPoint x="-110" y="1046" as="sourcePoint" />
            <mxPoint y="910" as="targetPoint" />
          </mxGeometry>
        </mxCell>
        <mxCell id="hvfkJ8Ui0_NtQzetKTxe-14" value="" style="endArrow=none;html=1;rounded=0;exitX=0.75;exitY=1;exitDx=0;exitDy=0;entryX=0;entryY=0.5;entryDx=0;entryDy=0;" edge="1" parent="1" source="KLNV0JxwbwmlQM-yH4I7-43" target="KLNV0JxwbwmlQM-yH4I7-49">
          <mxGeometry relative="1" as="geometry">
            <mxPoint x="90" y="1106" as="sourcePoint" />
            <mxPoint x="200" y="970" as="targetPoint" />
          </mxGeometry>
        </mxCell>
        <mxCell id="hvfkJ8Ui0_NtQzetKTxe-15" value="" style="endArrow=none;html=1;rounded=0;exitX=0.599;exitY=0.999;exitDx=0;exitDy=0;entryX=0.026;entryY=0.299;entryDx=0;entryDy=0;entryPerimeter=0;exitPerimeter=0;" edge="1" parent="1" source="KLNV0JxwbwmlQM-yH4I7-43" target="KLNV0JxwbwmlQM-yH4I7-50">
          <mxGeometry relative="1" as="geometry">
            <mxPoint x="210" y="1186" as="sourcePoint" />
            <mxPoint x="320" y="1050" as="targetPoint" />
          </mxGeometry>
        </mxCell>
        <mxCell id="hvfkJ8Ui0_NtQzetKTxe-16" value="" style="endArrow=none;html=1;rounded=0;exitX=0.5;exitY=1;exitDx=0;exitDy=0;entryX=0.344;entryY=0.018;entryDx=0;entryDy=0;entryPerimeter=0;" edge="1" parent="1" source="KLNV0JxwbwmlQM-yH4I7-43" target="KLNV0JxwbwmlQM-yH4I7-52">
          <mxGeometry relative="1" as="geometry">
            <mxPoint x="-170" y="1226" as="sourcePoint" />
            <mxPoint x="-60" y="1090" as="targetPoint" />
          </mxGeometry>
        </mxCell>
        <mxCell id="hvfkJ8Ui0_NtQzetKTxe-18" value="" style="endArrow=none;html=1;rounded=0;entryX=0;entryY=1;entryDx=0;entryDy=0;exitX=0.642;exitY=0.079;exitDx=0;exitDy=0;exitPerimeter=0;" edge="1" parent="1" source="hvfkJ8Ui0_NtQzetKTxe-1" target="hvfkJ8Ui0_NtQzetKTxe-2">
          <mxGeometry relative="1" as="geometry">
            <mxPoint x="-150" y="630" as="sourcePoint" />
            <mxPoint x="10" y="630" as="targetPoint" />
          </mxGeometry>
        </mxCell>
        <mxCell id="hvfkJ8Ui0_NtQzetKTxe-19" value="" style="endArrow=none;html=1;rounded=0;exitX=1;exitY=0.5;exitDx=0;exitDy=0;entryX=0.059;entryY=0.729;entryDx=0;entryDy=0;entryPerimeter=0;" edge="1" parent="1" source="hvfkJ8Ui0_NtQzetKTxe-1" target="hvfkJ8Ui0_NtQzetKTxe-3">
          <mxGeometry relative="1" as="geometry">
            <mxPoint x="110" y="866" as="sourcePoint" />
            <mxPoint x="220" y="730" as="targetPoint" />
          </mxGeometry>
        </mxCell>
        <mxCell id="hvfkJ8Ui0_NtQzetKTxe-20" value="" style="endArrow=none;html=1;rounded=0;exitX=1;exitY=0.75;exitDx=0;exitDy=0;" edge="1" parent="1" source="hvfkJ8Ui0_NtQzetKTxe-1" target="hvfkJ8Ui0_NtQzetKTxe-4">
          <mxGeometry relative="1" as="geometry">
            <mxPoint x="150" y="906" as="sourcePoint" />
            <mxPoint x="260" y="770" as="targetPoint" />
          </mxGeometry>
        </mxCell>
        <mxCell id="hvfkJ8Ui0_NtQzetKTxe-21" value="" style="endArrow=none;html=1;rounded=0;exitX=0.814;exitY=0.986;exitDx=0;exitDy=0;entryX=0.1;entryY=0.323;entryDx=0;entryDy=0;exitPerimeter=0;entryPerimeter=0;" edge="1" parent="1" source="hvfkJ8Ui0_NtQzetKTxe-1" target="hvfkJ8Ui0_NtQzetKTxe-6">
          <mxGeometry relative="1" as="geometry">
            <mxPoint x="220" y="916" as="sourcePoint" />
            <mxPoint x="330" y="780" as="targetPoint" />
          </mxGeometry>
        </mxCell>
        <mxCell id="hvfkJ8Ui0_NtQzetKTxe-22" value="" style="endArrow=none;html=1;rounded=0;exitX=0.5;exitY=1;exitDx=0;exitDy=0;" edge="1" parent="1" source="hvfkJ8Ui0_NtQzetKTxe-1" target="hvfkJ8Ui0_NtQzetKTxe-5">
          <mxGeometry relative="1" as="geometry">
            <mxPoint x="230" y="1026" as="sourcePoint" />
            <mxPoint x="340" y="890" as="targetPoint" />
          </mxGeometry>
        </mxCell>
        <mxCell id="hvfkJ8Ui0_NtQzetKTxe-23" value="" style="endArrow=none;html=1;rounded=0;exitX=0.577;exitY=0.976;exitDx=0;exitDy=0;exitPerimeter=0;entryX=0.5;entryY=0;entryDx=0;entryDy=0;" edge="1" parent="1" source="KLNV0JxwbwmlQM-yH4I7-56" target="KLNV0JxwbwmlQM-yH4I7-54">
          <mxGeometry relative="1" as="geometry">
            <mxPoint x="210" y="340" as="sourcePoint" />
            <mxPoint x="370" y="340" as="targetPoint" />
          </mxGeometry>
        </mxCell>
        <mxCell id="hvfkJ8Ui0_NtQzetKTxe-24" value="" style="endArrow=none;html=1;rounded=0;exitX=0.872;exitY=0.054;exitDx=0;exitDy=0;exitPerimeter=0;entryX=0.074;entryY=0.796;entryDx=0;entryDy=0;entryPerimeter=0;" edge="1" parent="1" source="KLNV0JxwbwmlQM-yH4I7-54" target="KLNV0JxwbwmlQM-yH4I7-55">
          <mxGeometry relative="1" as="geometry">
            <mxPoint x="268" y="270" as="sourcePoint" />
            <mxPoint x="250" y="371" as="targetPoint" />
          </mxGeometry>
        </mxCell>
        <mxCell id="hvfkJ8Ui0_NtQzetKTxe-25" value="" style="endArrow=none;html=1;rounded=0;exitX=0;exitY=0.5;exitDx=0;exitDy=0;entryX=1;entryY=0.5;entryDx=0;entryDy=0;" edge="1" parent="1" source="KLNV0JxwbwmlQM-yH4I7-57" target="KLNV0JxwbwmlQM-yH4I7-54">
          <mxGeometry relative="1" as="geometry">
            <mxPoint x="338" y="340" as="sourcePoint" />
            <mxPoint x="320" y="441" as="targetPoint" />
          </mxGeometry>
        </mxCell>
        <mxCell id="hvfkJ8Ui0_NtQzetKTxe-26" value="" style="endArrow=none;html=1;rounded=0;exitX=0.035;exitY=0.35;exitDx=0;exitDy=0;exitPerimeter=0;" edge="1" parent="1" source="hvfkJ8Ui0_NtQzetKTxe-8" target="KLNV0JxwbwmlQM-yH4I7-54">
          <mxGeometry relative="1" as="geometry">
            <mxPoint x="308" y="410" as="sourcePoint" />
            <mxPoint x="290" y="511" as="targetPoint" />
          </mxGeometry>
        </mxCell>
        <mxCell id="hvfkJ8Ui0_NtQzetKTxe-27" value="UserAccount" style="rounded=1;arcSize=10;whiteSpace=wrap;html=1;align=center;" vertex="1" parent="1">
          <mxGeometry x="-120" y="240" width="100" height="40" as="geometry" />
        </mxCell>
        <mxCell id="hvfkJ8Ui0_NtQzetKTxe-28" value="userName" style="ellipse;whiteSpace=wrap;html=1;align=center;" vertex="1" parent="1">
          <mxGeometry x="30" y="140" width="100" height="40" as="geometry" />
        </mxCell>
        <mxCell id="hvfkJ8Ui0_NtQzetKTxe-29" value="passwordHash" style="ellipse;whiteSpace=wrap;html=1;align=center;" vertex="1" parent="1">
          <mxGeometry x="30" y="200" width="100" height="40" as="geometry" />
        </mxCell>
        <mxCell id="hvfkJ8Ui0_NtQzetKTxe-30" value="lastLogin" style="ellipse;whiteSpace=wrap;html=1;align=center;" vertex="1" parent="1">
          <mxGeometry x="-10" y="340" width="100" height="40" as="geometry" />
        </mxCell>
        <mxCell id="hvfkJ8Ui0_NtQzetKTxe-31" value="status" style="ellipse;whiteSpace=wrap;html=1;align=center;" vertex="1" parent="1">
          <mxGeometry x="30" y="280" width="100" height="40" as="geometry" />
        </mxCell>
        <mxCell id="hvfkJ8Ui0_NtQzetKTxe-32" value="" style="endArrow=none;html=1;rounded=0;entryX=0;entryY=0.5;entryDx=0;entryDy=0;exitX=0.75;exitY=0;exitDx=0;exitDy=0;" edge="1" parent="1" source="hvfkJ8Ui0_NtQzetKTxe-27" target="hvfkJ8Ui0_NtQzetKTxe-37">
          <mxGeometry relative="1" as="geometry">
            <mxPoint x="-340" y="240" as="sourcePoint" />
            <mxPoint x="25.299999999999955" y="110.5200000000001" as="targetPoint" />
          </mxGeometry>
        </mxCell>
        <mxCell id="hvfkJ8Ui0_NtQzetKTxe-33" value="" style="endArrow=none;html=1;rounded=0;entryX=0.067;entryY=0.796;entryDx=0;entryDy=0;entryPerimeter=0;exitX=1;exitY=0.5;exitDx=0;exitDy=0;" edge="1" parent="1" source="hvfkJ8Ui0_NtQzetKTxe-27" target="hvfkJ8Ui0_NtQzetKTxe-28">
          <mxGeometry relative="1" as="geometry">
            <mxPoint x="-340" y="240" as="sourcePoint" />
            <mxPoint x="-180" y="240" as="targetPoint" />
          </mxGeometry>
        </mxCell>
        <mxCell id="hvfkJ8Ui0_NtQzetKTxe-34" value="" style="endArrow=none;html=1;rounded=0;entryX=0;entryY=1;entryDx=0;entryDy=0;exitX=1;exitY=0.75;exitDx=0;exitDy=0;" edge="1" parent="1" source="hvfkJ8Ui0_NtQzetKTxe-27" target="hvfkJ8Ui0_NtQzetKTxe-29">
          <mxGeometry relative="1" as="geometry">
            <mxPoint y="308" as="sourcePoint" />
            <mxPoint x="47" y="260" as="targetPoint" />
          </mxGeometry>
        </mxCell>
        <mxCell id="hvfkJ8Ui0_NtQzetKTxe-35" value="" style="endArrow=none;html=1;rounded=0;entryX=0.033;entryY=0.379;entryDx=0;entryDy=0;entryPerimeter=0;exitX=1;exitY=1;exitDx=0;exitDy=0;" edge="1" parent="1" source="hvfkJ8Ui0_NtQzetKTxe-27" target="hvfkJ8Ui0_NtQzetKTxe-31">
          <mxGeometry relative="1" as="geometry">
            <mxPoint y="338" as="sourcePoint" />
            <mxPoint x="47" y="290" as="targetPoint" />
          </mxGeometry>
        </mxCell>
        <mxCell id="hvfkJ8Ui0_NtQzetKTxe-36" value="" style="endArrow=none;html=1;rounded=0;entryX=0.087;entryY=0.229;entryDx=0;entryDy=0;entryPerimeter=0;exitX=0.693;exitY=1.046;exitDx=0;exitDy=0;exitPerimeter=0;" edge="1" parent="1" source="hvfkJ8Ui0_NtQzetKTxe-27" target="hvfkJ8Ui0_NtQzetKTxe-30">
          <mxGeometry relative="1" as="geometry">
            <mxPoint x="-40" y="358" as="sourcePoint" />
            <mxPoint x="7" y="310" as="targetPoint" />
          </mxGeometry>
        </mxCell>
        <mxCell id="hvfkJ8Ui0_NtQzetKTxe-37" value="userId" style="ellipse;whiteSpace=wrap;html=1;align=center;fontStyle=4;" vertex="1" parent="1">
          <mxGeometry x="20" y="70" width="100" height="40" as="geometry" />
        </mxCell>
        <mxCell id="hvfkJ8Ui0_NtQzetKTxe-47" value="" style="edgeStyle=entityRelationEdgeStyle;fontSize=12;html=1;endArrow=ERmandOne;startArrow=ERmandOne;rounded=0;entryX=0;entryY=0.5;entryDx=0;entryDy=0;exitX=1;exitY=0.5;exitDx=0;exitDy=0;" edge="1" parent="1" source="KLNV0JxwbwmlQM-yH4I7-1" target="hvfkJ8Ui0_NtQzetKTxe-27">
          <mxGeometry width="100" height="100" relative="1" as="geometry">
            <mxPoint x="-280" y="290" as="sourcePoint" />
            <mxPoint x="-180" y="190" as="targetPoint" />
          </mxGeometry>
        </mxCell>
        <mxCell id="hvfkJ8Ui0_NtQzetKTxe-51" value="&lt;mxGraphModel&gt;&lt;root&gt;&lt;mxCell id=&quot;0&quot;/&gt;&lt;mxCell id=&quot;1&quot; parent=&quot;0&quot;/&gt;&lt;mxCell id=&quot;2&quot; value=&quot;BankAccount&quot; style=&quot;rounded=1;arcSize=10;whiteSpace=wrap;html=1;align=center;&quot; vertex=&quot;1&quot; parent=&quot;1&quot;&gt;&lt;mxGeometry x=&quot;-280&quot; y=&quot;600&quot; width=&quot;100&quot; height=&quot;40&quot; as=&quot;geometry&quot;/&gt;&lt;/mxCell&gt;&lt;mxCell id=&quot;3&quot; value=&quot;status&quot; style=&quot;ellipse;whiteSpace=wrap;html=1;align=center;&quot; vertex=&quot;1&quot; parent=&quot;1&quot;&gt;&lt;mxGeometry x=&quot;-300&quot; y=&quot;720&quot; width=&quot;100&quot; height=&quot;40&quot; as=&quot;geometry&quot;/&gt;&lt;/mxCell&gt;&lt;mxCell id=&quot;4&quot; value=&quot;accountType&quot; style=&quot;ellipse;whiteSpace=wrap;html=1;align=center;&quot; vertex=&quot;1&quot; parent=&quot;1&quot;&gt;&lt;mxGeometry x=&quot;-410&quot; y=&quot;700&quot; width=&quot;100&quot; height=&quot;40&quot; as=&quot;geometry&quot;/&gt;&lt;/mxCell&gt;&lt;mxCell id=&quot;5&quot; value=&quot;balance&quot; style=&quot;ellipse;whiteSpace=wrap;html=1;align=center;&quot; vertex=&quot;1&quot; parent=&quot;1&quot;&gt;&lt;mxGeometry x=&quot;-450&quot; y=&quot;660&quot; width=&quot;100&quot; height=&quot;40&quot; as=&quot;geometry&quot;/&gt;&lt;/mxCell&gt;&lt;mxCell id=&quot;6&quot; value=&quot;accountId&amp;lt;span style=&amp;quot;color: rgba(0, 0, 0, 0); font-family: monospace; font-size: 0px; text-align: start; text-wrap-mode: nowrap;&amp;quot;&amp;gt;%3CmxGraphModel%3E%3Croot%3E%3CmxCell%20id%3D%220%22%2F%3E%3CmxCell%20id%3D%221%22%20parent%3D%220%22%2F%3E%3CmxCell%20id%3D%222%22%20value%3D%22userId%22%20style%3D%22ellipse%3BwhiteSpace%3Dwrap%3Bhtml%3D1%3Balign%3Dcenter%3B%22%20vertex%3D%221%22%20parent%3D%221%22%3E%3CmxGeometry%20x%3D%22630%22%20y%3D%22160%22%20width%3D%22100%22%20height%3D%2240%22%20as%3D%22geometry%22%2F%3E%3C%2FmxCell%3E%3C%2Froot%3E%3C%2FmxGraphModel%3E" style="edgeStyle=entityRelationEdgeStyle;fontSize=12;html=1;endArrow=ERzeroToMany;startArrow=ERmandOne;rounded=0;entryX=1;entryY=0.25;entryDx=0;entryDy=0;exitX=0;exitY=1;exitDx=0;exitDy=0;" edge="1" parent="1" source="hvfkJ8Ui0_NtQzetKTxe-27" target="KLNV0JxwbwmlQM-yH4I7-8">
          <mxGeometry width="100" height="100" relative="1" as="geometry">
            <mxPoint x="-110" y="250" as="sourcePoint" />
            <mxPoint x="-30" y="230" as="targetPoint" />
            <Array as="points">
              <mxPoint x="-120" y="280" />
            </Array>
          </mxGeometry>
        </mxCell>
        <mxCell id="hvfkJ8Ui0_NtQzetKTxe-52" value="&lt;mxGraphModel&gt;&lt;root&gt;&lt;mxCell id=&quot;0&quot;/&gt;&lt;mxCell id=&quot;1&quot; parent=&quot;0&quot;/&gt;&lt;mxCell id=&quot;2&quot; value=&quot;BankAccount&quot; style=&quot;rounded=1;arcSize=10;whiteSpace=wrap;html=1;align=center;&quot; vertex=&quot;1&quot; parent=&quot;1&quot;&gt;&lt;mxGeometry x=&quot;-280&quot; y=&quot;600&quot; width=&quot;100&quot; height=&quot;40&quot; as=&quot;geometry&quot;/&gt;&lt;/mxCell&gt;&lt;mxCell id=&quot;3&quot; value=&quot;status&quot; style=&quot;ellipse;whiteSpace=wrap;html=1;align=center;&quot; vertex=&quot;1&quot; parent=&quot;1&quot;&gt;&lt;mxGeometry x=&quot;-300&quot; y=&quot;720&quot; width=&quot;100&quot; height=&quot;40&quot; as=&quot;geometry&quot;/&gt;&lt;/mxCell&gt;&lt;mxCell id=&quot;4&quot; value=&quot;accountType&quot; style=&quot;ellipse;whiteSpace=wrap;html=1;align=center;&quot; vertex=&quot;1&quot; parent=&quot;1&quot;&gt;&lt;mxGeometry x=&quot;-410&quot; y=&quot;700&quot; width=&quot;100&quot; height=&quot;40&quot; as=&quot;geometry&quot;/&gt;&lt;/mxCell&gt;&lt;mxCell id=&quot;5&quot; value=&quot;balance&quot; style=&quot;ellipse;whiteSpace=wrap;html=1;align=center;&quot; vertex=&quot;1&quot; parent=&quot;1&quot;&gt;&lt;mxGeometry x=&quot;-450&quot; y=&quot;660&quot; width=&quot;100&quot; height=&quot;40&quot; as=&quot;geometry&quot;/&gt;&lt;/mxCell&gt;&lt;mxCell id=&quot;6&quot; value=&quot;accountId&amp;lt;span style=&amp;quot;color: rgba(0, 0, 0, 0); font-family: monospace; font-size: 0px; text-align: start; text-wrap-mode: nowrap;&amp;quot;&amp;gt;%3CmxGraphModel%3E%3Croot%3E%3CmxCell%20id%3D%220%22%2F%3E%3CmxCell%20id%3D%221%22%20parent%3D%220%22%2F%3E%3CmxCell%20id%3D%222%22%20value%3D%22userId%22%20style%3D%22ellipse%3BwhiteSpace%3Dwrap%3Bhtml%3D1%3Balign%3Dcenter%3B%22%20vertex%3D%221%22%20parent%3D%221%22%3E%3CmxGeometry%20x%3D%22630%22%20y%3D%22160%22%20width%3D%22100%22%20height%3D%2240%22%20as%3D%22geometry%22%2F%3E%3C%2FmxCell%3E%3C%2Froot%3E%3C%2FmxGraphModel%3E" style="edgeStyle=entityRelationEdgeStyle;fontSize=12;html=1;endArrow=ERzeroToMany;startArrow=ERmandOne;rounded=0;entryX=0;entryY=0.5;entryDx=0;entryDy=0;exitX=1;exitY=0.75;exitDx=0;exitDy=0;" edge="1" parent="1" source="KLNV0JxwbwmlQM-yH4I7-8" target="KLNV0JxwbwmlQM-yH4I7-43">
          <mxGeometry width="100" height="100" relative="1" as="geometry">
            <mxPoint x="-20" y="500" as="sourcePoint" />
            <mxPoint x="-230" y="820" as="targetPoint" />
            <Array as="points">
              <mxPoint x="-20" y="500" />
            </Array>
          </mxGeometry>
        </mxCell>
        <mxCell id="hvfkJ8Ui0_NtQzetKTxe-53" value="bankname" style="ellipse;whiteSpace=wrap;html=1;align=center;" vertex="1" parent="1">
          <mxGeometry x="-320" y="780" width="100" height="40" as="geometry" />
        </mxCell>
        <mxCell id="hvfkJ8Ui0_NtQzetKTxe-54" value="" style="endArrow=none;html=1;rounded=0;entryX=0;entryY=0;entryDx=0;entryDy=0;exitX=0.656;exitY=1;exitDx=0;exitDy=0;exitPerimeter=0;" edge="1" parent="1" source="KLNV0JxwbwmlQM-yH4I7-8" target="hvfkJ8Ui0_NtQzetKTxe-53">
          <mxGeometry relative="1" as="geometry">
            <mxPoint x="-388" y="730" as="sourcePoint" />
            <mxPoint x="-400" y="919" as="targetPoint" />
          </mxGeometry>
        </mxCell>
        <mxCell id="hvfkJ8Ui0_NtQzetKTxe-59" value="Beneficiary" style="whiteSpace=wrap;html=1;align=center;" vertex="1" parent="1">
          <mxGeometry x="-280" y="-50" width="100" height="40" as="geometry" />
        </mxCell>
        <mxCell id="hvfkJ8Ui0_NtQzetKTxe-60" value="BeneficiaryId" style="ellipse;whiteSpace=wrap;html=1;align=center;fontStyle=4;" vertex="1" parent="1">
          <mxGeometry x="-250" y="-180" width="100" height="40" as="geometry" />
        </mxCell>
        <mxCell id="hvfkJ8Ui0_NtQzetKTxe-61" value="nickname" style="ellipse;whiteSpace=wrap;html=1;align=center;" vertex="1" parent="1">
          <mxGeometry x="-120" y="-140" width="100" height="40" as="geometry" />
        </mxCell>
        <mxCell id="hvfkJ8Ui0_NtQzetKTxe-62" value="&lt;code&gt;beneficiaryAccountNumber&lt;/code&gt;" style="ellipse;whiteSpace=wrap;html=1;align=center;" vertex="1" parent="1">
          <mxGeometry x="-90" y="-90" width="180" height="50" as="geometry" />
        </mxCell>
        <mxCell id="hvfkJ8Ui0_NtQzetKTxe-64" value="&lt;code&gt;bankName&lt;/code&gt;" style="ellipse;whiteSpace=wrap;html=1;align=center;" vertex="1" parent="1">
          <mxGeometry x="-120" y="40" width="100" height="40" as="geometry" />
        </mxCell>
        <mxCell id="hvfkJ8Ui0_NtQzetKTxe-65" value="&lt;code&gt;beneficiaryName&lt;/code&gt;" style="ellipse;whiteSpace=wrap;html=1;align=center;" vertex="1" parent="1">
          <mxGeometry x="-100" y="-20" width="120" height="40" as="geometry" />
        </mxCell>
        <mxCell id="hvfkJ8Ui0_NtQzetKTxe-66" value="" style="endArrow=none;html=1;rounded=0;entryX=0.5;entryY=1;entryDx=0;entryDy=0;exitX=0.5;exitY=0;exitDx=0;exitDy=0;" edge="1" parent="1" source="hvfkJ8Ui0_NtQzetKTxe-59" target="hvfkJ8Ui0_NtQzetKTxe-60">
          <mxGeometry relative="1" as="geometry">
            <mxPoint x="-280" y="40" as="sourcePoint" />
            <mxPoint x="-120" y="40" as="targetPoint" />
          </mxGeometry>
        </mxCell>
        <mxCell id="hvfkJ8Ui0_NtQzetKTxe-67" value="" style="endArrow=none;html=1;rounded=0;entryX=0.05;entryY=0.769;entryDx=0;entryDy=0;exitX=0.75;exitY=0;exitDx=0;exitDy=0;entryPerimeter=0;" edge="1" parent="1" source="hvfkJ8Ui0_NtQzetKTxe-59" target="hvfkJ8Ui0_NtQzetKTxe-61">
          <mxGeometry relative="1" as="geometry">
            <mxPoint x="-220" y="-10" as="sourcePoint" />
            <mxPoint x="-190" y="-100" as="targetPoint" />
          </mxGeometry>
        </mxCell>
        <mxCell id="hvfkJ8Ui0_NtQzetKTxe-68" value="" style="endArrow=none;html=1;rounded=0;entryX=0;entryY=0.5;entryDx=0;entryDy=0;exitX=1;exitY=0.5;exitDx=0;exitDy=0;" edge="1" parent="1" source="hvfkJ8Ui0_NtQzetKTxe-59" target="hvfkJ8Ui0_NtQzetKTxe-62">
          <mxGeometry relative="1" as="geometry">
            <mxPoint x="-160" y="50" as="sourcePoint" />
            <mxPoint x="-130" y="-40" as="targetPoint" />
          </mxGeometry>
        </mxCell>
        <mxCell id="hvfkJ8Ui0_NtQzetKTxe-69" value="" style="endArrow=none;html=1;rounded=0;entryX=0;entryY=0.5;entryDx=0;entryDy=0;exitX=1;exitY=0.75;exitDx=0;exitDy=0;" edge="1" parent="1" source="hvfkJ8Ui0_NtQzetKTxe-59" target="hvfkJ8Ui0_NtQzetKTxe-65">
          <mxGeometry relative="1" as="geometry">
            <mxPoint x="-150" y="80" as="sourcePoint" />
            <mxPoint x="-120" y="-10" as="targetPoint" />
          </mxGeometry>
        </mxCell>
        <mxCell id="hvfkJ8Ui0_NtQzetKTxe-70" value="" style="endArrow=none;html=1;rounded=0;entryX=0;entryY=0.5;entryDx=0;entryDy=0;exitX=0.75;exitY=1;exitDx=0;exitDy=0;" edge="1" parent="1" source="hvfkJ8Ui0_NtQzetKTxe-59" target="hvfkJ8Ui0_NtQzetKTxe-64">
          <mxGeometry relative="1" as="geometry">
            <mxPoint x="-180" y="130" as="sourcePoint" />
            <mxPoint x="-150" y="40" as="targetPoint" />
          </mxGeometry>
        </mxCell>
        <mxCell id="hvfkJ8Ui0_NtQzetKTxe-71" value="" style="edgeStyle=orthogonalEdgeStyle;fontSize=12;html=1;endArrow=ERmany;rounded=0;exitX=0.75;exitY=0;exitDx=0;exitDy=0;entryX=0.5;entryY=1;entryDx=0;entryDy=0;curved=1;" edge="1" parent="1" source="KLNV0JxwbwmlQM-yH4I7-1" target="hvfkJ8Ui0_NtQzetKTxe-59">
          <mxGeometry width="100" height="100" relative="1" as="geometry">
            <mxPoint x="-250" y="90" as="sourcePoint" />
            <mxPoint x="-150" y="-10" as="targetPoint" />
          </mxGeometry>
        </mxCell>
      </root>
    </mxGraphModel>
  </diagram>
</mxfile>
